# xmcd
# Copyright (C) 1995-1998 Ti Kan
#
# Track frame offsets:
#       150
#       21203
#       38379
#       51985
#       66848
#       80358
#       102783
#       120733
#       138060
#       152542
#       162727
#
# Disc length: 2473 seconds
#
# Revision: 0
# Processed by: cddbd v1.5.2PL0 Copyright (c) Steve Scherf et al.
# Submitted via: CD-Import v1.0
#
DISCID=8409a70b
DTITLE=Balthazar - Applause
DYEAR=11
DGENRE=
TTITLE0=Fifteen Floors
TTITLE1=Hunger At The Door
TTITLE2=Morning
TTITLE3=Wire
TTITLE4=I'll Stay Here
TTITLE5=Blues For Rosann
TTITLE6=Throwing A Ball
TTITLE7=More Ways
TTITLE8=The Boatman
TTITLE9=Intro
TTITLE10=Blood Like Wine
EXTD=
EXTT0=
EXTT1=
EXTT2=
EXTT3=
EXTT4=
EXTT5=
EXTT6=
EXTT7=
EXTT8=
EXTT9=
EXTT10=
PLAYORDER=
